Title:
Thesis on a Homicide Aka Tesis Sobre Un Homicidio

Country:
Argentina/2012

Language:
Spanish

Subtitle:
Spanish

Director:
Hernán Goldfrid

Stars:
Ricardo Darín, Alberto Ammann, Calu Rivero

Synopsis:
Roberto Bermúdez (Ricardo Darín) is a respected criminal law university professor and author, although not without a certain lonely private life. When dashing, charismatic Gonzalo (Alberto Ammann) enrolls in his class and cheekily seems to draw parallels between a violent real-life episode and his own “thesis” for Roberto’s class, Roberto becomes convinced that the smooth, dapper Gonzalo is a psychotic killer. When the Faculty of Law and the police do not see things Roberto’s way, he becomes determined to personally find evidence that will indict Gonzalo, but Gonzalo seems to be perpetually a step ahead of the investigation – or is he? The nasty fun of Hernán Golfrid’s cat-and-mouse thriller is that you’re never sure exactly which of the lead characters has the most screws loose.

Imdb: 
http://www.imdb.com/title/tt2241605

Trailer: 
http://trailers-de-peliculas.labutaca.net/tesis-sobre-un-homicidio-teaser


Media Info:

General
Complete name                            : Thesis.on.a.Homicide.[Tesis.Sobre.Un.Homicidio].2013.DVDRip.XviD.HORiZON-ArtSubs.avi
Format                                   : AVI
Format/Info                              : Audio Video Interleave
File size                                : 1.37 GiB
Duration                                 : 1h 46mn
Overall bit rate                         : 1 838 Kbps

Video
ID                                       : 0
Format                                   : MPEG-4 Visual
Format profile                           : Advanced Simple@L5
Format settings, BVOP                    : 1
Format settings, QPel                    : No
Format settings, GMC                     : No warppoints
Format settings, Matrix                  : Default (MPEG)
Codec ID                                 : XVID
Codec ID/Hint                            : XviD
Duration                                 : 1h 46mn
Bit rate                                 : 1 445 Kbps
Width                                    : 704 pixels
Height                                   : 320 pixels
Display aspect ratio                     : 2.2:1
Frame rate                               : 23.976 fps
Color space                              : YUV
Chroma subsampling                       : 4:2:0
Bit depth                                : 8 bits
Scan type                                : Progressive
Compression mode                         : Lossy
Bits/(Pixel*Frame)                       : 0.268
Stream size                              : 1.08 GiB (79%)
Writing library                          : XviD 1.2.1 (UTC 2008-12-04)

Audio
ID                                       : 1
Format                                   : AC-3
Format/Info                              : Audio Coding 3
Mode extension                           : CM (complete main)
Format settings, Endianness              : Big
Codec ID                                 : 2000
Duration                                 : 1h 46mn
Bit rate mode                            : Constant
Bit rate                                 : 384 Kbps
Channel(s)                               : 6 channels
Channel positions                        : Front: L C R, Side: L R, LFE
Sampling rate                            : 48.0 KHz
Bit depth                                : 16 bits
Compression mode                         : Lossy
Delay relative to video                  : 368ms
Stream size                              : 293 MiB (21%)
Alignment                                : Split accross interleaves
Interleave, duration                     : 42 ms (1.00 video frame)
Interleave, preload duration             : 500 ms

